<?xml version="1.0" ?><!-- Generator: Adobe Illustrator 15.0.0, SVG Export Plug-In  --><svg enable-background="new -117.262 -46.714 800 600" height="520px" id="svg3937" inkscape:version="0.92.2 (5c3e80d, 2017-08-06)" overflow="visible" sodipodi:docname="human_body.svg" style="background-color: #000;" version="1.1" viewBox="-10 -10 250 520" width="250px" x="0px" xml:space="preserve" xmlns="http://www.w3.org/2000/svg" xmlns:cc="http://creativecommons.org/ns#" xmlns:dc="http://purl.org/dc/elements/1.1/" xmlns:inkscape="http://www.inkscape.org/namespaces/inkscape" xmlns:rdf="http://www.w3.org/1999/02/22-rdf-syntax-ns#" xmlns:sodipodi="http://sodipodi.sourceforge.net/DTD/sodipodi-0.dtd" xmlns:svg="http://www.w3.org/2000/svg" y="0px"><metadata id="metadata3941"><rdf:RDF><cc:Work rdf:about=""><dc:format>image/svg+xml</dc:format><dc:type rdf:resource="http://purl.org/dc/dcmitype/StillImage"/></cc:Work></rdf:RDF></metadata><sodipodi:namedview bordercolor="#666666" borderopacity="1" gridtolerance="10" guidetolerance="10" id="namedview3939" inkscape:current-layer="svg3937" inkscape:cx="249.0991" inkscape:cy="337.12963" inkscape:pageopacity="0" inkscape:pageshadow="2" inkscape:window-height="838" inkscape:window-maximized="1" inkscape:window-width="1600" inkscape:window-x="-8" inkscape:window-y="-8" inkscape:zoom="1.38" objecttolerance="10" pagecolor="#ffffff" showgrid="false"/><defs id="defs3821"/><g id="g3825"><path d="M114.044,0.823c-4.25-0.475-9.522-0.42-11.716,0.124   c-2.194,0.543-5.39,2.488-7.104,4.321s-3.676,5.001-4.361,7.038s-1.246,8.039-1.246,13.336s0.785,12.244,1.744,15.436   s3.035,7.859,4.612,10.372c1.577,2.513,5.223,5.069,8.102,5.681c2.878,0.611,7.533,0.833,10.344,0.494   c2.811-0.34,6.905-2.452,9.098-4.693s4.886-7.743,5.982-12.225c1.097-4.482,1.882-11.539,1.744-15.682   c-0.138-4.143-1.371-10.421-2.742-13.953s-3.445-7.088-4.611-7.903C122.726,2.354,118.295,1.298,114.044,0.823z" fill="none" id="path3823" stroke="#999999" stroke-miterlimit="10"/></g><g id="g3829"><path d="M93.042,45.708c0,0,0.127,2.042,0.282,4.538   c0.155,2.496,0.169,6.927,0.032,9.848s-0.53,5.81-0.873,6.421c-0.343,0.612-0.623,1.112-0.623,1.112" fill="none" id="path3827" stroke="#999999" stroke-miterlimit="10"/></g><polyline fill="none" id="polyline3831" points="73.915,77.504 66.934,75.528 75.907,70.836 92.856,64.878   " stroke="#999999" stroke-miterlimit="10"/><g id="g3835"><path d="M44.75,115.783c0,0-0.505-3.111-1.123-6.915   s-0.674-9.859-0.125-13.459c0.549-3.599,2.849-8.544,5.111-10.99c2.262-2.445,6.188-5.334,8.724-6.421   c2.536-1.087,5.733-2.087,7.104-2.223s2.493-0.248,2.493-0.248" fill="none" id="path3833" stroke="#999999" stroke-miterlimit="10"/></g><g id="g3839"><path d="M43.408,106.46c0,0-1.605,3.153-3.567,7.007   c-1.962,3.854-4.801,10.675-6.31,15.157c-1.508,4.482-3.302,13.207-3.988,19.387s-1.211,16.925-1.168,23.878   c0.043,6.953,0.078,12.641,0.078,12.641" fill="none" id="path3837" stroke="#999999" stroke-miterlimit="10"/></g><g id="g3843"><path d="M31.041,181.228c0,0-1.234,1.667-2.743,3.704   c-1.508,2.037-3.864,6.038-5.234,8.891c-1.371,2.852-2.492,9.854-2.492,15.559s0.056,15.54,0.124,21.855   c0.068,6.315-0.268,12.316-0.748,13.335c-0.479,1.019-1.433,2.075-2.119,2.347c-0.685,0.272-1.863,1.161-2.617,1.977   c-0.754,0.815-2.156,2.538-3.115,3.828c-0.96,1.29-2.362,2.957-3.116,3.705s-2.941,2.025-4.861,2.84   c-1.919,0.815-3.546,1.87-3.615,2.346c-0.069,0.475,0.66,1.586,1.62,2.469s2.362,1.55,3.116,1.482   c0.754-0.067,2.773-1.234,4.486-2.594c1.714-1.358,3.565-2.247,4.113-1.975c0.548,0.271,0.661,2.938,0.249,5.926   c-0.412,2.988-0.748,7.878-0.748,10.865c0,2.988,1.178,5.99,2.618,6.67s4.132,1.402,5.983,1.605   c1.851,0.203,4.206-0.575,5.234-1.729c1.029-1.154,2.375-5.1,2.991-8.767c0.616-3.668,1.682-9.892,2.367-13.83   s1.19-8.884,1.122-10.99c-0.069-2.106,1.67-6.773,3.863-10.373s4.998-9.934,6.232-14.076s2.973-12.366,3.864-18.275   c0.891-5.909,1.733-15.245,1.87-20.745c0.137-5.501,0.249-10.002,0.249-10.002" fill="none" id="path3841" stroke="#999999" stroke-miterlimit="10"/></g><g id="g3847"><path d="M49.484,185.178c0,0,1.234-2.5,2.743-5.557s3.528-9.224,4.488-13.706   c0.959-4.482,1.857-10.539,1.994-13.459s-0.031-10.811-0.374-17.534s-0.623-12.224-0.623-12.224" fill="none" id="path3845" stroke="#999999" stroke-miterlimit="10"/></g><g id="g3851"><path d="M58.833,146.931c0,0,1.206,2.716,2.68,6.035   s2.792,13.258,2.929,22.087c0.137,8.829-0.425,17.941-1.248,20.25c-0.822,2.309-1.607,7.199-1.744,10.867   c-0.137,3.667-0.024,11.502,0.25,17.411c0.274,5.909,1.003,11.354,1.62,12.102c0.617,0.747,0.561,2.803-0.125,4.568   s-1.695,5.933-2.244,9.261s-0.941,11.219-0.873,17.535c0.069,6.315,0.91,16.984,1.87,23.708c0.959,6.724,2.586,17.393,3.614,23.709   c1.029,6.316,2.319,12.817,2.867,14.446c0.548,1.63,1.895,3.796,2.991,4.814c1.096,1.02,2.835,1.853,3.863,1.853   c1.028,0,1.869,0,1.869,0" fill="none" id="path3849" stroke="#999999" stroke-miterlimit="10"/></g><g id="g3855"><path d="M71.451,333.727c0,0-0.512,1.806-1.137,4.013   s-1.361,8.235-1.636,13.396s-0.218,12.885,0.125,17.163c0.343,4.278,1.802,14.503,3.241,22.721   c1.439,8.219,3.907,21.888,5.483,30.377c1.576,8.489,2.81,16.602,2.742,18.027c-0.068,1.425-0.405,3.814-0.749,5.309   c-0.343,1.495,0.33,3.44,1.496,4.324c1.166,0.883,2.288,2.661,2.494,3.951c0.206,1.29-0.131,4.346-0.748,6.791   c-0.617,2.445-2.355,7.502-3.863,11.237c-1.509,3.735-2.967,8.459-3.24,10.496s-0.049,4.481,0.499,5.433   c0.548,0.951,3.744,2.784,7.103,4.074c3.359,1.291,7.621,2.347,9.472,2.347s3.926-0.444,4.611-0.987s1.863-1.987,2.617-3.21   c0.754-1.223,1.427-9.669,1.495-18.77s0.518-17.158,0.998-17.905c0.48-0.747,0.873-1.97,0.873-2.717   c0-0.746-0.729-3.413-1.62-5.926c-0.891-2.514-1.676-9.182-1.745-14.818s-0.013-12.583,0.124-15.436   c0.137-2.852,0.979-7.575,1.87-10.496c0.891-2.92,2.293-7.254,3.116-9.631c0.822-2.378,2.112-7.378,2.867-11.113   c0.755-3.735,1.372-11.181,1.372-16.545c0-5.365-1.389-14.576-3.085-20.468s-3.085-10.713-3.085-10.713" fill="none" id="path3853" stroke="#999999" stroke-miterlimit="10"/></g><g id="g3859"><path d="M77.9,343.976c0,0,0.954,0.723,2.119,1.604   c1.166,0.883,3.41,1.661,4.986,1.729c1.577,0.067,5.055-0.433,7.728-1.111c2.673-0.678,4.86-1.233,4.86-1.233" fill="none" id="path3857" stroke="#999999" stroke-miterlimit="10"/></g><g id="g3863"><path d="M101.084,339.53c0,0,0.561-1.223,1.246-2.717   c0.686-1.494,1.695-5.105,2.243-8.025c0.548-2.921,1.445-10.089,1.993-15.93c0.548-5.841,1.278-16.955,1.621-24.697   c0.343-7.741,0.904-16.966,1.247-20.496c0.343-3.531,0.623-6.421,0.623-6.421" fill="none" id="path3861" stroke="#999999" stroke-miterlimit="10"/></g><g id="g3867"><path d="M95.6,241.487c0,0,1.01,2.333,2.244,5.186s3.309,6.575,4.611,8.272   c1.302,1.698,3.209,3.477,4.237,3.952s2.823,0.865,3.989,0.865s2.961-1.111,3.989-2.471c1.028-1.358,2.654-4.914,3.614-7.902   c0.96-2.987,1.745-5.432,1.745-5.432" fill="none" id="path3865" stroke="#999999" stroke-miterlimit="10"/></g><g id="g3871"><path d="M119.031,339.281c0,0-0.561-1.277-1.247-2.839   s-1.639-4.673-2.119-6.914c-0.48-2.241-1.378-8.965-1.995-14.941c-0.617-5.977-1.458-17.59-1.868-25.807   c-0.411-8.217-0.972-17.678-1.246-21.022c-0.274-3.345-0.499-6.082-0.499-6.082" fill="none" id="path3869" stroke="#999999" stroke-miterlimit="10"/></g><g id="g3875"><path d="M116.538,333.603c0,0-1.178,3.778-2.617,8.396   s-2.786,9.896-2.992,11.73s-0.318,7.725-0.25,13.09s0.63,12.978,1.247,16.917c0.617,3.939,2.132,9.552,3.366,12.472   c1.234,2.921,2.636,7.089,3.117,9.262c0.48,2.174,0.928,10.175,0.996,17.78s-0.438,15.828-1.123,18.273s-1.471,5.224-1.745,6.176   s-0.105,2.675,0.374,3.829c0.479,1.153,0.984,9.655,1.121,18.892s0.642,17.627,1.122,18.646c0.48,1.02,1.995,2.297,3.365,2.84   c1.371,0.544,4.455,0.711,6.854,0.371s6.606-1.507,9.348-2.594c2.742-1.087,5.042-3.644,5.11-5.681   c0.069-2.037-1.501-8.149-3.49-13.582s-3.783-11.989-3.989-14.571c-0.206-2.581,0.692-5.692,1.995-6.914s2.312-2.889,2.244-3.705   c-0.068-0.815-0.629-2.094-1.246-2.84c-0.617-0.746-0.785-3.358-0.374-5.804s1.701-9.225,2.866-15.064s3.072-16.119,4.237-22.843   c1.166-6.724,2.792-16.447,3.614-21.609c0.823-5.162,1.384-13.607,1.248-18.77s-0.642-12.573-1.122-16.469   c-0.48-3.896-0.874-7.085-0.874-7.085" fill="none" id="path3873" stroke="#999999" stroke-miterlimit="10"/></g><g id="g3879"><path d="M121.772,344.963c0,0,1.515,0.556,3.366,1.234   c1.851,0.679,5.16,1.29,7.354,1.358s5.054-0.709,6.356-1.728c1.302-1.02,2.368-1.853,2.368-1.853" fill="none" id="path3877" stroke="#999999" stroke-miterlimit="10"/></g><g id="g3883"><path d="M143.864,335.516c0,0,0.897,0,1.994,0s2.499-0.667,3.115-1.482   c0.617-0.814,1.683-3.148,2.368-5.186c0.686-2.038,1.92-7.483,2.743-12.102s2.337-14.509,3.366-21.979   c1.028-7.471,2.094-19.529,2.368-26.797c0.274-7.267-0.42-17.47-1.543-22.674s-2.041-9.461-2.041-9.461" fill="none" id="path3881" stroke="#999999" stroke-miterlimit="10"/></g><g id="g3887"><path d="M161.156,125.661c0,0-0.112,4.334-0.249,9.632   c-0.137,5.297-0.417,10.798-0.623,12.225c-0.206,1.427-1.271,4.983-2.369,7.903c-1.097,2.92-2.275,6.365-2.618,7.655   c-0.342,1.291-0.623,8.848-0.623,16.793s0.617,16.669,1.371,19.386s1.371,7.551,1.371,10.744c0,3.192-0.225,9.916-0.499,14.941   s-0.611,9.971-0.748,10.989s-0.642,2.352-1.121,2.963s-0.872,1.111-0.872,1.111" fill="none" id="path3885" stroke="#999999" stroke-miterlimit="10"/></g><g id="g3891"><path d="M170.721,184.345c0,0-0.862-1.702-1.916-3.781   c-1.054-2.08-2.477-5.171-3.162-6.869c-0.686-1.698-1.583-5.31-1.994-8.026c-0.411-2.716-1.259-8.314-1.884-12.44   c-0.625-4.126-1.137-7.501-1.137-7.501" fill="none" id="path3889" stroke="#999999" stroke-miterlimit="10"/></g><g id="g3895"><path d="M170.628,176.782c0,0,0,2.223,0,4.939s0.224,7.551,0.498,10.743   c0.274,3.192,0.947,9.693,1.496,14.447c0.548,4.754,1.502,10.978,2.119,13.83c0.617,2.853,2.131,7.464,3.365,10.249   s3.883,7.702,5.888,10.927c2.005,3.226,3.645,5.866,3.645,5.866" fill="none" id="path3893" stroke="#999999" stroke-miterlimit="10"/></g><g id="g3899"><path d="M187.64,247.783c0,0-0.014,1.195-0.03,2.655s0.25,3.933,0.592,5.495   s0.959,4.729,1.371,7.038c0.411,2.31,1.084,6.811,1.495,10.002s1.365,7.192,2.119,8.891c0.754,1.697,2.493,3.364,3.864,3.703   c1.371,0.34,3.502,0.396,4.736,0.125c1.234-0.271,3.365-1.383,4.736-2.469c1.371-1.087,2.38-4.421,2.244-7.409   s-0.642-7.489-1.122-10.002s-0.537-4.681-0.125-4.815c0.412-0.136,2.318,0.642,4.238,1.729c1.919,1.086,4.163,2.086,4.986,2.223   c0.823,0.136,2.183-0.253,3.023-0.865c0.84-0.611,1.527-1.486,1.527-1.945c0-0.458-1.43-1.375-3.178-2.037   c-1.749-0.661-4.23-2.37-5.516-3.797c-1.285-1.426-3.22-3.76-4.3-5.186c-1.08-1.426-2.888-2.968-4.019-3.427   s-2.266-3.084-2.523-5.835c-0.257-2.75-0.468-12.835-0.468-22.411s-0.168-18.411-0.374-19.634s-1.131-3.932-2.056-6.02   c-0.925-2.088-3.113-5.672-4.861-7.964c-1.748-2.292-3.179-4.168-3.179-4.168" fill="none" id="path3897" stroke="#999999" stroke-miterlimit="10"/></g><g id="g3903"><path d="M176.892,106.645c0,0,1.452,2.959,3.225,6.576   c1.774,3.617,4.192,9.201,5.375,12.41s2.78,8.418,3.551,11.576c0.771,3.158,1.697,8.367,2.057,11.576s0.654,9.21,0.654,13.336   s0.105,10.585,0.234,14.354c0.129,3.769,0.234,6.853,0.234,6.853" fill="none" id="path3901" stroke="#999999" stroke-miterlimit="10"/></g><g id="g3907"><path d="M146.698,77.381c0,0,1.388-0.292,3.084-0.648   c1.697-0.357,4.389-0.607,5.982-0.556c1.594,0.051,4.875,0.842,7.291,1.759c2.416,0.917,6.034,3.334,8.039,5.371   c2.006,2.038,4.193,5.122,4.862,6.854c0.668,1.732,1.215,6.274,1.215,10.095s-0.336,8.863-0.748,11.206s-0.748,4.26-0.748,4.26" fill="none" id="path3905" stroke="#999999" stroke-miterlimit="10"/></g><g id="g3911"><path d="M127.35,65.156c0,0,1.704,0.667,3.786,1.482   c2.082,0.815,5.678,2.107,7.991,2.871c2.313,0.764,5.636,1.847,7.384,2.408c1.748,0.56,4.23,1.727,5.516,2.593   c1.285,0.867,2.337,1.575,2.337,1.575" fill="none" id="path3909" stroke="#999999" stroke-miterlimit="10"/></g><g id="g3915"><path d="M126.787,48.116c0,0-0.021,3.417-0.046,7.594   c-0.025,4.176,0.333,8.636,0.796,9.909c0.462,1.273,0.841,2.315,0.841,2.315" fill="none" id="path3913" stroke="#999999" stroke-miterlimit="10"/></g><g id="g3919"><path d="M68.741,132.392c0,0,0.673,0.333,1.496,0.741   s3.136,0.949,5.141,1.204s8.693,0.504,14.863,0.556s11.218,0.093,11.218,0.093" fill="none" id="path3917" stroke="#999999" stroke-miterlimit="10"/></g><g id="g3923"><path d="M153.616,131.65c0,0-0.505,0.458-1.122,1.019   s-2.173,1.228-3.458,1.482c-1.286,0.254-8.058,0.588-15.05,0.741c-6.992,0.153-12.713,0.278-12.713,0.278" fill="none" id="path3921" stroke="#999999" stroke-miterlimit="10"/></g><g id="g3927"><path d="M105.384,153.691c0,0-2.019,2.167-4.487,4.816   s-5.497,6.441-6.73,8.428c-1.234,1.986-3.043,7.696-4.02,12.688c-0.977,4.992-1.776,9.076-1.776,9.076" fill="none" id="path3925" stroke="#999999" stroke-miterlimit="10"/></g><g id="g3931"><path d="M116.413,153.876c0,0,1.935,2.25,4.299,5.001   c2.365,2.751,5.352,6.71,6.637,8.798s3.052,7.505,3.926,12.039c0.874,4.534,1.589,8.243,1.589,8.243" fill="none" id="path3929" stroke="#999999" stroke-miterlimit="10"/></g><g id="g3935"><path d="M108.561,214.814c0,0,0.421,0.583,0.935,1.297   c0.514,0.713,0.935,1.629,0.935,2.037c0,0.407-0.462,1.074-1.028,1.481c-0.565,0.407-1.027,0.741-1.027,0.741" fill="none" id="path3933" stroke="#999999" stroke-miterlimit="10"/></g><path d="m 218.40985,101.42432 c -7.35355,-4.955551 -10.21812,-13.30495 -10.19328,-29.71046 0.0197,-13.004968 0.67168,-15.110697 6.17467,-19.942383 3.80285,-3.338948 7.66049,-4.177071 15.76075,-3.424231 8.01141,0.744582 10.31172,1.709145 12.48938,5.237023 8.65511,14.02157 4.95445,42.354647 -6.28069,48.086391 -5.0876,2.5955 -13.91356,2.47438 -17.95083,-0.24634 z" id="head" inkscape:connector-curvature="0" style="fill:#006897;fill-opacity:1;stroke:#000000;stroke-width:0;stroke-linejoin:round;stroke-miterlimit:4;stroke-dasharray:none;stroke-opacity:1" transform="translate(-117.262,-46.714)"/><path d="m 202.74757,537.63879 c -7.70716,-2.88783 -8.85785,-3.87543 -8.85785,-7.60234 0,-1.9137 1.64387,-8.03974 3.65305,-13.6134 4.36824,-12.11794 4.86656,-17.5018 1.91135,-20.65019 -1.77529,-1.89135 -1.96831,-2.78879 -1.50636,-7.00387 0.40042,-3.65367 -0.56332,-10.95016 -3.94557,-29.87182 -7.06631,-39.53178 -7.56838,-43.76451 -6.94728,-58.5693 0.29917,-7.13115 0.80089,-14.08138 1.11493,-15.44498 0.52153,-2.26457 0.83261,-2.43017 3.59252,-1.9124 1.77339,0.33269 3.02154,0.20253 3.02154,-0.31509 0,-0.48506 -1.14631,-1.11119 -2.54735,-1.3914 -4.97306,-0.99461 -6.26439,-4.99887 -10.38752,-32.21026 -4.10035,-27.06111 -4.53288,-47.94044 -1.24177,-59.94326 l 1.19603,-4.36196 12.97317,0.5277 c 15.50007,0.63047 17.8912,1.0865 17.8912,3.41214 0,2.0608 3.86188,9.96443 6.75199,13.81846 1.14456,1.5263 3.30755,3.28313 4.80665,3.90408 1.4991,0.62094 2.55082,1.41185 2.33715,1.75757 -0.21367,0.34572 -1.01836,11.06281 -1.78821,23.81575 -1.78945,29.64316 -2.82633,39.51997 -4.9933,47.56376 -2.04146,7.57789 -2.10504,8.35781 -0.51006,6.25707 1.04678,-1.37871 1.34993,-0.91772 2.64608,4.02385 2.94214,11.21695 3.44391,14.70508 3.45041,23.9862 0.008,10.98721 -0.88136,16.06441 -5.38894,30.77506 -3.26377,10.65143 -3.28765,10.84521 -3.25103,26.37854 0.0286,12.12823 0.37719,16.72934 1.54968,20.45407 1.15136,3.65761 1.31485,5.68712 0.68432,8.49478 -0.45566,2.02896 -1.02743,10.5007 -1.27059,18.8261 -0.52469,17.9642 -1.1697,19.61196 -7.79669,19.91776 -2.16363,0.0998 -5.38003,-0.36034 -7.14755,-1.02262 z m 6.52287,-143.66572 c 2.60618,-0.54432 5.12077,-1.34908 5.58798,-1.78837 1.1401,-1.07196 -0.33393,-1.02047 -7.24596,0.25312 -4.94383,0.91094 -6.12953,0.85105 -8.85177,-0.44709 -3.92342,-1.87095 -4.51393,-1.8823 -2.99958,-0.0576 2.51949,3.03582 6.1305,3.58109 13.50933,2.03997 z" id="leftLeg" inkscape:connector-curvature="0" style="fill:#ad5200;fill-opacity:1;stroke:#000000;stroke-width:0;stroke-linejoin:round;stroke-miterlimit:4;stroke-dasharray:none;stroke-opacity:1" transform="translate(-117.262,-46.714)"/><path d="m 238.31432,536.42376 c -1.18822,-1.31297 -1.60545,-5.10491 -2.26762,-20.60891 -0.44631,-10.44994 -1.02848,-19.2169 -1.29372,-19.48213 -0.26523,-0.26524 0.18016,-2.55979 0.98975,-5.09899 1.17007,-3.66976 1.45259,-8.10161 1.37738,-21.60631 l -0.0946,-16.98957 -3.20633,-9.14292 c -5.77392,-16.46442 -6.7907,-36.46166 -2.61716,-51.47233 2.10317,-7.56434 2.59432,-8.55952 3.56751,-7.2286 1.9499,2.66666 2.03153,0.90404 0.22668,-4.89496 -2.02613,-6.50996 -3.986,-24.63366 -5.33315,-49.31782 -0.52339,-9.59016 -1.13807,-18.64381 -1.36595,-20.11922 -0.34554,-2.23712 0.0158,-2.92738 2.17605,-4.15689 1.95815,-1.11448 3.21136,-3.13089 5.13463,-8.26155 2.06929,-5.52016 2.89946,-6.78903 4.44697,-6.79691 1.0465,-0.005 3.3091,-0.59731 5.02801,-1.31552 1.7189,-0.7182 3.36786,-1.06325 3.66434,-0.76676 0.29648,0.29648 1.07482,0.0944 1.72964,-0.44903 1.70698,-1.41668 10.99772,-3.79744 16.6118,-4.25681 4.14313,-0.339 4.71799,-0.19557 4.23725,1.0572 -0.39168,1.02071 -0.17224,1.30208 0.74192,0.95128 4.08159,-1.56625 4.98857,32.50443 1.50758,56.63284 -4.18125,28.98233 -6.60229,37.7196 -10.60955,38.28872 -1.10655,0.15715 -2.01192,0.70704 -2.01192,1.22198 0,0.51493 0.971,0.75062 2.15777,0.52375 2.77708,-0.53087 3.00494,0.51131 3.75909,17.19357 0.69269,15.32294 0.23345,19.30723 -6.41624,55.6652 -4.97842,27.22013 -5.50672,31.77928 -4.00721,34.58115 0.64651,1.20801 0.31526,2.34056 -1.34128,4.58588 -3.05218,4.13699 -2.82559,7.60523 1.37693,21.07569 3.97956,12.7558 4.29823,15.52934 2.01192,17.51104 -4.51945,3.91731 -17.4997,5.63914 -20.18046,2.67693 z m 18.16854,-143.39002 c 1.72131,-1.05727 2.65121,-2.08709 2.06645,-2.28847 -0.58477,-0.20138 -2.09852,0.31221 -3.36389,1.14131 -2.30578,1.51081 -7.39137,1.46464 -14.35084,-0.1303 -3.3424,-0.76598 -2.2513,0.58746 1.629,2.0207 4.65265,1.71852 10.5176,1.40758 14.01928,-0.74324 z" id="rightLeg" inkscape:connector-curvature="0" style="fill:#ad5200;fill-opacity:1;stroke:#000000;stroke-width:0;stroke-linejoin:round;stroke-miterlimit:4;stroke-dasharray:none;stroke-opacity:1" transform="translate(-117.262,-46.714)"/><path d="m 284.62786,222.98542 c -2.16848,-4.65952 -2.47318,-5.98824 -4.59793,-20.05033 -0.87381,-5.783 -1.63079,-10.5426 -1.6822,-10.57689 -0.0514,-0.0343 -0.0445,-0.83966 0.0154,-1.78971 0.15754,-2.49955 0.31523,-6.93644 0.451,-12.68933 0.0719,-3.04747 0.16846,-5.19928 0.24468,-5.45358 0.22493,-0.75047 -0.10425,-3.09839 -0.65466,-4.66946 -0.097,-0.27685 -0.21231,-0.67953 -0.25626,-0.89486 -0.10411,-0.51002 -0.52041,-1.28034 -1.02973,-1.90541 -0.37165,-0.45611 -0.41273,-0.57725 -0.47281,-1.39436 -0.13534,-1.84065 -0.49262,-3.76058 -0.7483,-4.02126 -0.0573,-0.0584 -0.10423,-0.19051 -0.10423,-0.29348 0,-0.38183 -1.26705,-3.0317 -1.68083,-3.51524 -0.10529,-0.12304 -0.22008,-0.48162 -0.25508,-0.79684 -0.035,-0.31523 -0.16724,-0.74308 -0.29387,-0.95079 -0.12663,-0.20771 -0.23042,-0.44985 -0.23065,-0.53809 -2.4e-4,-0.0882 -0.10594,-0.39025 -0.2349,-0.67114 -0.12897,-0.28088 -0.30386,-0.66171 -0.38865,-0.84627 -0.36904,-0.80327 -0.71915,-1.83078 -0.71915,-2.11055 0,-0.16681 -0.11061,-0.51521 -0.2458,-0.77422 -0.13519,-0.25902 -0.28186,-0.74778 -0.32595,-1.08615 -0.15794,-1.21232 -0.30905,-2.0749 -0.4213,-2.40492 -0.0628,-0.18457 -0.20071,-0.68614 -0.30653,-1.11461 -0.11649,-0.47168 -0.29526,-0.8819 -0.45312,-1.03976 -0.1434,-0.1434 -0.26073,-0.30175 -0.26073,-0.35189 0,-0.0501 -0.12687,-0.27811 -0.28193,-0.50661 -0.2681,-0.39506 -1.40611,-3.97343 -1.78978,-5.62775 -0.18781,-0.80984 -0.44275,-1.61201 -0.614,-1.932 -0.17313,-0.32349 -0.67881,-2.32877 -0.8398,-3.33018 -0.082,-0.51008 -0.24531,-1.09051 -0.36293,-1.28985 -0.11761,-0.19935 -0.24862,-0.58738 -0.29113,-0.8623 -0.0425,-0.27493 -0.14829,-0.72637 -0.23507,-1.00322 -0.19312,-0.61615 -0.54718,-2.89206 -0.55631,-3.57598 l -0.007,-0.49992 1.80884,-0.35451 c 3.46902,-0.67989 5.96616,-0.7776 8.28551,-0.32421 1.6581,0.32412 4.02892,1.02003 5.37906,1.57892 1.65444,0.68486 4.0101,2.14822 5.89734,3.6635 2.24766,1.80466 4.94919,5.17885 6.10177,7.62106 0.93079,1.97225 1.54635,7.33121 1.39416,12.13723 -0.15414,4.8674 -0.34547,6.97323 -0.97833,10.76762 -0.25408,1.52342 -0.43104,2.80079 -0.39324,2.83859 0.0599,0.0599 0.97246,0.26297 0.97246,0.21639 0,-0.01 0.17276,-0.99705 0.38392,-2.19415 0.21117,-1.1971 0.43991,-2.6044 0.50832,-3.12733 0.25594,-1.95636 0.0823,-2.07451 1.64426,1.11856 3.36252,6.87375 5.71264,12.42937 7.28684,17.22595 1.95563,5.95879 3.00488,10.17739 3.92275,15.77182 0.8902,5.4257 1.0924,8.458 1.23823,18.56823 0.0572,3.96812 0.13871,8.76258 0.18107,10.65436 l 0.077,3.4396 H 298.57029 288.4323 v -0.27964 c 0,-0.261 -0.0373,-0.27965 -0.55929,-0.27965 -0.52199,0 -0.55928,0.0186 -0.55928,0.27965 0,0.27936 -0.001,0.27964 -1.10235,0.27964 h -1.10234 z" id="arm1" inkscape:connector-curvature="0" style="fill:#ff0000;fill-opacity:1;stroke:#000000;stroke-width:0;stroke-linejoin:round;stroke-miterlimit:4;stroke-dasharray:none;stroke-opacity:1" transform="translate(-117.262,-46.714)"/><path d="m 146.22959,218.40244 c 0.002,-8.24612 0.34413,-15.84164 1.01516,-22.51433 0.66428,-6.60562 2.43484,-15.4422 4.08495,-20.38729 1.69802,-5.08867 4.04588,-10.61141 7.10163,-16.70478 1.72791,-3.44557 1.82121,-3.60456 1.8969,-3.23232 0.0438,0.21533 0.32006,1.89087 0.61395,3.72343 l 0.53436,3.33193 0.51355,-0.0744 c 0.28244,-0.041 0.52613,-0.0848 0.54153,-0.0974 0.0154,-0.0126 -0.14558,-1.07581 -0.35772,-2.36262 -1.10319,-6.69171 -1.20011,-7.66265 -1.19376,-11.95934 0.008,-5.68964 0.48044,-8.07646 2.3781,-12.02451 1.10348,-2.29577 2.16743,-3.8429 3.64142,-5.29511 2.06675,-2.03621 4.89598,-4.12349 7.05926,-5.20801 2.54024,-1.2735 6.1163,-2.38357 8.52301,-2.64569 l 1.51007,-0.16447 3.10386,0.868 c 2.49754,0.69845 3.10389,0.90495 3.10402,1.05715 9e-5,0.10403 -0.0502,0.22026 -0.11169,0.25828 -0.0615,0.038 -0.11185,0.22807 -0.11185,0.42233 0,0.19425 -0.0694,0.55622 -0.15417,0.80436 -0.0848,0.24814 -0.2071,0.65251 -0.2718,0.89859 -0.0647,0.24609 -0.22803,0.74944 -0.36297,1.11857 -0.13493,0.36913 -0.28883,1.14933 -0.34199,1.73378 -0.19024,2.09136 -0.39838,2.89792 -0.93815,3.63535 -0.13509,0.18456 -0.28001,0.59807 -0.32203,0.9189 -0.042,0.32084 -0.20026,0.84936 -0.35163,1.1745 -0.15137,0.32514 -0.2757,0.71532 -0.27631,0.86706 -0.002,0.43925 -0.34875,1.25143 -0.74461,1.74273 -0.48755,0.60511 -1.2973,2.56677 -1.59559,3.8654 -0.13278,0.5781 -0.38373,1.32794 -0.55765,1.66631 -0.17393,0.33836 -0.40523,0.89205 -0.514,1.23042 -0.10878,0.33837 -0.36825,0.92358 -0.5766,1.30047 -0.20835,0.3769 -0.4846,1.10676 -0.61387,1.62193 -0.27228,1.085 -0.32537,1.19943 -0.88483,1.90721 -0.25442,0.32186 -0.47224,0.75927 -0.55819,1.12092 -0.0775,0.3262 -0.24828,0.69377 -0.37945,0.81681 -0.33698,0.3161 -1.4106,2.3449 -1.48566,2.80741 -0.0344,0.21227 -0.10618,0.41286 -0.15941,0.44575 -0.0532,0.0329 -0.0968,0.25582 -0.0968,0.49538 0,0.23956 -0.0457,0.55119 -0.10153,0.69251 -0.16172,0.40925 -0.55024,2.1717 -0.74707,3.38893 -0.12592,0.77869 -0.3668,1.5885 -0.79277,2.66518 -0.33654,0.85064 -0.7368,2.10112 -0.88947,2.77883 -0.15266,0.67772 -0.3956,1.4991 -0.53986,1.82529 -0.14426,0.3262 -0.345,0.87761 -0.4461,1.22536 -0.10109,0.34775 -0.25721,0.66044 -0.34692,0.69486 -0.0897,0.0344 -0.16312,0.1626 -0.16312,0.28482 0,0.13094 -0.0955,0.24719 -0.23248,0.28301 -0.21871,0.0572 -0.22843,0.11454 -0.16416,0.96828 0.13348,1.77293 0.72877,14.27663 0.85266,17.90971 0.0692,2.03021 0.10201,5.7047 0.0728,8.16555 -0.0478,4.02836 -0.0825,4.69166 -0.34851,6.65548 -0.58166,4.29406 -1.3354,8.41854 -2.08814,11.42618 -0.69174,2.76398 -2.04583,7.01777 -2.95628,9.28704 -0.0697,0.17365 -0.94921,0.18833 -11.92325,0.19889 l -11.84803,0.0114 z" id="arm2" inkscape:connector-curvature="0" style="fill:#ff0000;fill-opacity:1;stroke:#000000;stroke-width:0;stroke-linejoin:round;stroke-miterlimit:4;stroke-dasharray:none;stroke-opacity:1" transform="translate(-117.262,-46.714)"/><path d="m 214.44253,113.61939 c -0.20184,-0.0478 -1.19596,-0.12355 -2.20917,-0.16824 -1.41864,-0.0626 -1.8422,-0.11551 -1.8422,-0.2302 0,-0.0819 0.0728,-0.46666 0.1617,-0.85498 0.62922,-2.74745 0.88216,-9.98677 0.55618,-15.918578 l -0.0615,-1.118568 0.65978,1.243139 c 0.97182,1.831076 1.64327,2.783061 2.71286,3.846347 1.58578,1.57641 3.80221,2.98774 5.72003,3.64226 1.89619,0.64714 5.48644,1.0028 9.19397,0.91078 3.302,-0.082 4.29075,-0.30792 6.96025,-1.59064 3.02843,-1.4552 5.18758,-3.31314 6.69885,-5.764365 l 0.50748,-0.823095 10e-4,4.63691 c 0.001,6.2884 0.239,9.41996 0.85087,11.21892 0.14662,0.43109 0.26659,0.83104 0.26659,0.88877 0,0.13503 -0.89451,0.003 -1.39386,-0.20547 -0.33256,-0.13895 -0.43065,-0.13633 -0.80669,0.0215 -0.36347,0.15259 -0.79976,0.17188 -2.89058,0.12778 -1.82519,-0.0385 -2.53444,-0.0925 -2.74049,-0.20863 -0.36607,-0.20632 -3.85413,-0.22637 -4.25887,-0.0245 -0.42742,0.2132 -8.71061,0.35839 -9.44217,0.1655 -0.68132,-0.17964 -3.56766,-0.10573 -5.59262,0.1432 -1.45284,0.1786 -2.4725,0.19936 -3.05154,0.0621 z" id="neck" inkscape:connector-curvature="0" style="fill:#0000ff;fill-opacity:1;stroke:#000000;stroke-width:0;stroke-linejoin:round;stroke-miterlimit:4;stroke-dasharray:none;stroke-opacity:1" transform="translate(-117.262,-46.714)"/><path d="m 306.39589,304.41719 c -0.026,-0.0769 -0.17463,-0.77108 -0.33036,-1.54263 -0.43013,-2.13098 -0.62212,-4.08833 -0.62212,-6.34259 0,-1.8091 -0.0207,-2.04207 -0.18148,-2.04207 -0.14351,0 -0.15409,-0.033 -0.0505,-0.15777 0.10505,-0.12659 -0.231,-0.74017 -1.70005,-3.10403 -3.29398,-5.30038 -4.93165,-8.1828 -6.75494,-11.88924 -2.13173,-4.33341 -3.80198,-9.47768 -4.66868,-14.37916 -0.9795,-5.5395 -1.66898,-10.90122 -2.63772,-20.51236 -0.7558,-7.49849 -1.00882,-11.82453 -1.00882,-17.24846 v -3.17878 h 10.11797 10.11797 l 0.0557,0.36353 c 0.0306,0.19995 0.0784,1.21662 0.10614,2.25928 0.0488,1.83321 0.044,1.88708 -0.14772,1.63297 l -0.19821,-0.26278 -0.41012,0.31282 c -0.22557,0.17205 -0.39579,0.35293 -0.37826,0.40196 0.0175,0.049 0.8669,1.18685 1.88749,2.52849 4.29285,5.64324 6.23151,9.15183 7.64982,13.84472 0.35934,1.18896 0.41626,1.55084 0.51019,3.24384 0.0582,1.04808 0.15524,8.0717 0.21575,15.60805 0.14634,18.22597 0.31067,24.06842 0.73471,26.12133 0.50229,2.43176 1.45526,4.2128 2.55264,4.77076 1.4835,0.75428 2.69924,1.85664 4.39698,3.98695 1.88525,2.36559 2.8661,3.51693 3.99576,4.69032 l 0.99613,1.03467 h -12.10049 c -9.58064,0 -12.11032,-0.0291 -12.1477,-0.13982 z" id="arm3" inkscape:connector-curvature="0" style="fill:#ff0000;fill-opacity:1;stroke:#000000;stroke-width:0;stroke-linejoin:round;stroke-miterlimit:4;stroke-dasharray:none;stroke-opacity:1" transform="translate(-117.262,-46.714)"/><path d="m 316.12574,332.0036 c -1.97097,-0.19238 -2.61077,-0.48579 -3.82071,-1.75223 -0.64108,-0.67101 -0.95334,-1.11283 -1.28169,-1.81353 -0.77487,-1.65353 -1.73095,-5.67018 -2.22305,-9.33944 -0.60694,-4.52554 -1.20264,-8.28794 -1.90651,-12.04151 -0.24401,-1.30124 -0.44366,-2.40862 -0.44367,-2.46085 0,-0.0522 5.47399,-0.0698 12.16443,-0.039 l 12.16444,0.0559 0.83893,0.64008 c 1.05441,0.80448 2.39551,1.56398 3.91121,2.21502 1.12,0.48107 2.46463,1.26797 2.46463,1.44234 0,0.1752 -0.64668,0.93451 -1.10434,1.29666 -0.55375,0.4382 -1.51626,0.82837 -2.25015,0.91213 -0.81189,0.0927 -1.99647,-0.39309 -5.70591,-2.33979 -1.76208,-0.92474 -3.10928,-1.49576 -3.78316,-1.60351 -0.35545,-0.0568 -0.4848,-0.0204 -0.75573,0.21307 l -0.32688,0.28164 0.009,1.71503 c 0.007,1.33377 0.0749,2.08801 0.30662,3.39288 0.57023,3.21101 1.08109,8.02493 1.08231,10.19884 0.001,2.41523 -0.61611,4.76847 -1.60055,6.09999 -0.50395,0.68163 -2.90842,2.11979 -4.32723,2.5882 -0.83953,0.27716 -2.42554,0.43433 -3.41163,0.33808 z" id="arm4" inkscape:connector-curvature="0" style="fill:#ff0000;fill-opacity:1;stroke:#000000;stroke-width:0;stroke-linejoin:round;stroke-miterlimit:4;stroke-dasharray:none;stroke-opacity:1" transform="translate(-117.262,-46.714)"/><path d="m 286.19125,226.30749 -1.07543,-2.23146 1.06189,-0.0322 c 0.58403,-0.0177 1.08165,-0.0124 1.10581,0.0117 0.0242,0.0242 0.0302,1.0428 0.0135,2.26365 l -0.0304,2.21973 z" id="arm5" inkscape:connector-curvature="0" style="fill:#ff0000;fill-opacity:1;stroke:#000000;stroke-width:0;stroke-linejoin:round;stroke-miterlimit:4;stroke-dasharray:none;stroke-opacity:1" transform="translate(-117.262,-46.714)"/><path d="m 138.43523,261.01674 c 4.8e-4,-8.16895 0.0594,-9.51706 0.56836,-13.00335 0.54745,-3.74995 1.21164,-6.08005 2.3831,-8.36037 1.73486,-3.37701 3.40252,-6.04854 5.7629,-9.23198 1.69539,-2.28656 1.67993,-2.24783 1.04541,-2.62023 l -0.32409,-0.19021 -0.80308,1.07854 -0.80308,1.07855 v -2.80018 -2.80018 l 2.09732,-0.0733 c 1.15352,-0.0403 5.69121,-0.0734 10.08374,-0.0736 l 7.98643,-3.1e-4 -0.0767,3.71924 c -0.32717,15.87279 -1.50185,26.46069 -4.32715,39.00265 -0.24161,1.07254 -0.43929,1.966 -0.43929,1.98546 0,0.0195 -5.20974,0.0354 -11.57719,0.0354 h -11.57718 z" id="arm6" inkscape:connector-curvature="0" style="fill:#ff0000;fill-opacity:1;stroke:#000000;stroke-width:0;stroke-linejoin:round;stroke-miterlimit:4;stroke-dasharray:none;stroke-opacity:1" transform="translate(-117.262,-46.714)"/><path d="m 134.29607,331.02669 c -0.65829,-0.25432 -1.08122,-0.49946 -1.37479,-0.79687 -0.54723,-0.55437 -1.12418,-1.76178 -1.44612,-3.02633 -0.23248,-0.91312 -0.25463,-1.24572 -0.24931,-3.74268 0.006,-3.02741 0.13888,-5.06378 0.57462,-8.83668 0.51014,-4.41716 0.38744,-6.82873 -0.37279,-7.32685 -0.68129,-0.4464 -2.31579,0.17117 -4.29045,1.62106 -2.59305,1.90396 -4.14066,2.79751 -4.84522,2.79751 -0.96905,0 -2.98007,-1.48176 -3.71651,-2.7384 l -0.31572,-0.53874 0.32799,-0.2686 c 0.55497,-0.45448 1.78721,-1.14064 3.09446,-1.72311 1.58352,-0.70557 2.68678,-1.30866 3.89402,-2.12865 1.15774,-0.78637 2.17597,-1.90067 4.58591,-5.01861 2.56646,-3.32044 3.55288,-4.31719 5.05825,-5.11123 1.35212,-0.7132 2.40894,-2.1113 2.7082,-3.58277 0.44,-2.1634 0.64326,-8.11499 0.54448,-15.94246 l -0.0745,-5.90045 h 11.58647 11.58646 l -0.48548,1.8736 c -0.60016,2.31616 -1.01907,3.63119 -1.844,5.78859 -1.34049,3.50571 -3.0768,7.17197 -4.87365,10.29083 -1.60793,2.79093 -2.50187,4.72227 -3.21695,6.95017 -0.57336,1.78636 -0.72676,2.68986 -0.79638,4.69042 -0.13513,3.88324 -0.42464,6.07355 -2.08372,15.76433 -1.76365,10.30156 -1.88879,10.91295 -2.73661,13.3699 -0.63674,1.84525 -1.19903,2.92381 -1.8001,3.45289 l -0.52155,0.45909 -3.98313,-0.004 -3.98314,-0.004 z" id="arm7" inkscape:connector-curvature="0" style="fill:#ff0000;fill-opacity:1;stroke:#000000;stroke-width:0;stroke-linejoin:round;stroke-miterlimit:4;stroke-dasharray:none;stroke-opacity:1" transform="translate(-117.262,-46.714)"/><path d="m 167.47876,226.64873 c 0.0379,-1.41498 0.0747,-2.57977 0.0818,-2.58841 0.007,-0.009 0.54718,-0.0348 1.20015,-0.0582 l 1.18722,-0.0425 -0.36078,0.84119 c -0.19843,0.46265 -0.76948,1.64655 -1.269,2.63089 l -0.90822,1.78971 z" id="chest1" inkscape:connector-curvature="0" style="fill:#0039c6;fill-opacity:1;stroke:#000000;stroke-width:0;stroke-linejoin:round;stroke-miterlimit:4;stroke-dasharray:none;stroke-opacity:1" transform="translate(-117.262,-46.714)"/><path d="m 219.09834,299.77513 c -0.98522,-1.40833 -2.85214,-5.11094 -4.44152,-8.80872 -0.66108,-1.53803 -1.24488,-2.84288 -1.29734,-2.89965 -0.0579,-0.0627 -0.20618,-0.0528 -0.37765,0.0254 -0.26179,0.11929 -0.29359,0.10149 -0.43859,-0.24556 -0.61401,-1.46952 -3.55397,-1.97264 -14.44182,-2.47142 -3.96335,-0.18156 -14.11351,-0.59579 -15.48973,-0.63214 l -0.83649,-0.0221 -0.19453,0.60596 -0.19453,0.60597 0.0683,-0.50336 c 0.0376,-0.27684 0.0628,-0.92594 0.0561,-1.44244 -0.0104,-0.80172 -0.0619,-1.04201 -0.35159,-1.64274 -0.92313,-1.91404 -1.50845,-7.1626 -1.80153,-16.15419 -0.17528,-5.37772 -0.0847,-14.80226 0.16071,-16.72259 0.37316,-2.91989 0.90067,-5.59046 1.41406,-7.15884 0.4766,-1.45598 0.86325,-4.61583 1.13604,-9.28412 0.18673,-3.19562 0.18905,-13.63392 0.004,-16.21924 -0.5077,-7.07774 -1.29351,-12.56958 -2.27142,-15.87434 -0.12895,-0.43578 -0.91045,-2.32083 -1.73667,-4.189 l -1.50223,-3.39668 -0.10983,-3.70623 c -0.10074,-3.39898 -0.33277,-8.7944 -0.51176,-11.89974 l -0.0725,-1.25839 h 50.96234 50.96234 l -0.0538,1.42617 c -0.0296,0.7844 -0.1044,3.16276 -0.16619,5.28524 -0.12365,4.24681 -0.27306,7.45376 -0.45028,9.66473 -0.18795,2.34488 -0.86141,4.68446 -3.27148,11.36493 -1.91802,5.31657 -1.96877,5.54506 -2.22349,10.01061 -0.19565,3.42992 -0.19605,18.34766 -5.6e-4,21.47651 0.32188,5.15237 0.6391,8.06948 1.09473,10.06711 1.32196,5.79587 1.56206,9.04708 1.27628,17.28188 -0.25391,7.31604 -0.82459,17.22547 -1.1184,19.42002 -0.1366,1.02031 -0.57401,2.18931 -1.07674,2.87763 -0.444,0.60792 -0.5764,0.6173 -0.3816,0.027 0.16731,-0.50696 0.0628,-0.83098 -0.31413,-0.97432 -0.43589,-0.16575 -2.73532,-0.13094 -4.64779,0.0704 -3.59286,0.37816 -8.18875,1.33916 -11.9983,2.50884 -1.8381,0.56437 -3.11099,1.09999 -4.01715,1.69037 -0.72206,0.47045 -1.51858,0.68865 -1.66268,0.45549 -0.20485,-0.33146 -1.77087,-0.003 -3.8871,0.81465 -1.63061,0.63022 -3.13557,1.04217 -4.3484,1.1903 -1.32565,0.1619 -1.60329,0.27539 -2.1292,0.87038 -0.49959,0.56521 -1.63939,2.81378 -2.23548,4.41011 -0.69632,1.86476 -0.44954,0.87407 0.56556,-2.27037 0.56099,-1.73776 0.99777,-3.21747 0.97061,-3.28823 -0.0422,-0.10989 -0.86266,-0.43541 -0.92188,-0.36575 -0.0114,0.0134 -0.48357,1.45889 -1.04933,3.21225 -0.56576,1.75336 -1.31206,3.9052 -1.65845,4.78188 l -0.6298,1.59396 h -7.07174 -7.07173 l -0.21519,-0.30761 z m 7.64796,-32.81262 c 1.03986,-0.76167 1.57572,-1.60802 1.46196,-2.30905 -0.0333,-0.20504 -0.19029,-0.65632 -0.34893,-1.00283 -0.31874,-0.69622 -1.48977,-2.38221 -1.65459,-2.38221 -0.15947,0 -0.75432,0.44841 -0.75432,0.56861 0,0.0583 0.2454,0.44495 0.54534,0.85928 0.6437,0.88919 1.13251,1.82311 1.13251,2.16379 0,0.24384 -0.69753,0.99375 -1.45173,1.56076 l -0.38131,0.28666 0.31375,0.41135 c 0.17945,0.23528 0.36828,0.37902 0.44113,0.33582 0.0701,-0.0416 0.38334,-0.26303 0.69619,-0.49218 z m -19.59458,-36.48268 c 1.36577,-6.98252 2.26523,-10.52464 3.49937,-13.78064 0.85078,-2.2446 1.23367,-2.90941 3.06338,-5.31891 1.65751,-2.18272 3.47534,-4.30193 6.17778,-7.20198 1.42668,-1.53099 2.71346,-2.93112 2.85951,-3.11139 l 0.26555,-0.32776 -0.31444,-0.32821 c -0.17295,-0.18051 -0.35373,-0.3282 -0.40175,-0.3282 -0.11446,0 -4.85596,5.07402 -6.21932,6.65548 -2.7209,3.15615 -4.79738,5.9552 -5.55976,7.49441 -0.98845,1.99563 -2.2341,5.83751 -3.11898,9.61968 -0.38962,1.6653 -2.15229,10.54563 -2.21956,11.18215 -0.0306,0.28925 0.008,0.34159 0.30047,0.40623 0.18457,0.0408 0.41256,0.0802 0.50665,0.0874 0.13799,0.0107 0.36259,-0.96586 1.1611,-5.04829 z m 43.45076,4.10782 c 0.06,-0.06 -1.31364,-7.28518 -1.84774,-9.71891 -0.74766,-3.40693 -2.1844,-7.83342 -3.19692,-9.84952 -1.14462,-2.27913 -4.03759,-6.11498 -8.84816,-11.73195 l -2.66812,-3.11538 -0.37622,0.36465 c -0.20692,0.20055 -0.34293,0.41959 -0.30224,0.48674 0.0407,0.0671 1.11164,1.33015 2.37988,2.80666 4.64184,5.40413 7.69846,9.43144 8.7638,11.54691 1.04607,2.07722 2.26136,5.73298 3.0778,9.25846 0.18521,0.79978 0.69387,3.31656 1.13036,5.59284 0.43648,2.27629 0.82194,4.2324 0.85658,4.34691 0.0532,0.1759 0.13432,0.1968 0.52267,0.1347 0.25284,-0.0404 0.48158,-0.0954 0.50831,-0.12211 z m -5.63305,-52.28996 c 13.85674,-0.31274 19.71563,-0.57344 21.61538,-0.96182 0.8951,-0.18299 2.09081,-0.63857 2.86169,-1.09033 0.50747,-0.2974 1.75718,-1.37696 1.74881,-1.51071 -0.002,-0.04 -0.14865,-0.24113 -0.32478,-0.44702 l -0.32023,-0.37435 -0.69605,0.6399 c -0.76045,0.6991 -2.0528,1.37221 -3.18459,1.65867 -1.60655,0.40661 -8.43133,0.71542 -21.47651,0.97177 -3.56824,0.0701 -6.53888,0.14196 -6.60144,0.15965 -0.0639,0.0181 -0.0957,0.25849 -0.0726,0.54904 l 0.0411,0.51687 0.74377,-2.9e-4 c 0.40907,-1.7e-4 2.95854,-0.0503 5.66547,-0.11138 z m -26.23042,-0.55947 v -0.55928 l -0.53132,-0.004 c -11.69293,-0.0877 -21.08053,-0.30464 -24.22975,-0.56002 -2.74553,-0.22265 -5.20332,-0.76954 -6.74902,-1.50174 l -1.04242,-0.4938 -0.22263,0.43639 c -0.12244,0.24002 -0.22263,0.45487 -0.22263,0.47745 0,0.0226 0.49078,0.2752 1.09061,0.56137 3.30469,1.57658 7.14023,1.9155 23.57382,2.08303 4.36801,0.0445 8.02992,0.0897 8.13759,0.10042 0.16292,0.0162 0.19575,-0.0743 0.19575,-0.53983 z" id="chest2" inkscape:connector-curvature="0" style="fill:#0039c6;fill-opacity:1;stroke:#000000;stroke-width:0;stroke-linejoin:round;stroke-miterlimit:4;stroke-dasharray:none;stroke-opacity:1" transform="translate(-117.262,-46.714)"/><path d="m 175.90826,175.22362 c -0.0939,-0.56818 -0.17212,-2.05967 -0.17378,-3.31443 -0.002,-1.75473 -0.0968,-2.31737 -0.40944,-2.43732 -0.34738,-0.13331 -0.35279,-0.2621 -0.0372,-0.88668 0.54155,-1.07188 2.78866,-8.58208 3.4731,-11.60763 0.54933,-2.4283 0.83923,-3.09369 3.48266,-7.99361 0.20435,-0.37878 0.37231,-0.8486 0.37324,-1.04403 9.4e-4,-0.19543 0.23858,-0.81965 0.5281,-1.38716 0.28952,-0.56751 0.97348,-2.31626 1.51991,-3.88611 0.54643,-1.56985 1.29469,-3.42497 1.66281,-4.12248 0.36812,-0.69751 0.92024,-2.10643 1.22694,-3.13093 0.30671,-1.02451 0.69634,-2.12189 0.86586,-2.43864 0.16952,-0.31674 0.42322,-1.4 0.56378,-2.40724 0.14056,-1.00724 0.42834,-2.38919 0.63949,-3.07101 0.21116,-0.68182 0.45927,-1.58058 0.55136,-1.99725 0.0921,-0.41666 0.33777,-0.75757 0.54594,-0.75757 0.38332,0 0.83721,-0.794 0.59332,-1.03789 -0.0729,-0.0729 -1.33822,-0.4663 -2.81176,-0.87417 l -2.67916,-0.74158 3.77883,-1.98793 c 2.85346,-1.50112 5.69647,-2.66035 11.60968,-4.73379 4.30697,-1.51022 7.90097,-2.74585 7.98668,-2.74585 0.0857,0 -0.0302,0.35981 -0.25765,0.79958 -0.37033,0.71613 -0.36871,0.81677 0.0154,0.96419 0.67963,0.2608 0.88707,0.19812 1.05079,-0.31749 0.14176,-0.44648 0.98275,-0.48977 11.3822,-0.58597 14.83612,-0.13723 14.78356,-0.13726 19.09272,0.0109 3.85783,0.13267 4.39536,0.24943 4.39536,0.95482 0,0.2759 0.20887,0.38426 0.61983,0.32155 0.63667,-0.0971 0.67218,-0.21378 0.36965,-1.21407 -0.16032,-0.53009 0.17247,-0.45039 3.75564,0.89939 2.16235,0.81456 6.59706,2.35661 9.85492,3.42677 6.61268,2.17219 11.90755,4.66126 9.90409,4.65583 -0.37121,-0.001 -1.75964,0.20603 -3.0854,0.46007 -2.23155,0.4276 -2.41047,0.51091 -2.41047,1.12232 0,0.53506 0.10459,0.62723 0.55097,0.48556 0.48679,-0.15451 0.55096,-0.0495 0.55096,0.90155 0,0.59204 0.26038,2.057 0.57862,3.25548 0.31824,1.19848 0.73526,2.86087 0.92673,3.69421 0.70896,3.08571 2.69226,9.23965 3.45661,10.72544 0.4339,0.84343 0.92979,2.3393 1.10199,3.32414 0.49857,2.85155 1.65275,6.13273 3.87611,11.01929 0.67503,1.48358 1.20417,3.19961 1.44407,4.68319 0.20958,1.29603 0.64278,2.78159 0.97017,3.32697 0.65486,1.09091 1.69529,4.84415 1.69529,6.11562 0,0.66982 -0.0947,0.78974 -0.53317,0.67508 -0.6833,-0.17868 -0.84424,0.26009 -0.84424,2.30156 v 1.63036 h -50.7904 -50.7904 z" id="chest3" inkscape:connector-curvature="0" style="fill:#0039c6;fill-opacity:1;stroke:#000000;stroke-width:0;stroke-linejoin:round;stroke-miterlimit:4;stroke-dasharray:none;stroke-opacity:1" transform="translate(-117.262,-46.714)"/><path d="m 224.82882,305.2729 c -1.17538,-0.4159 -4.35226,-3.25017 -5.0003,-4.46105 l -0.31481,-0.58823 h 6.90139 6.90138 l -0.72233,1.44628 c -0.81213,1.62606 -2.0886,3.09198 -3.19889,3.67365 -0.94955,0.49746 -3.05288,0.46492 -4.56644,-0.0707 z" id="chest4" inkscape:connector-curvature="0" style="fill:#0039c6;fill-opacity:1;stroke:#000000;stroke-width:0;stroke-linejoin:round;stroke-miterlimit:4;stroke-dasharray:none;stroke-opacity:1" transform="translate(-117.262,-46.714)"/><path d="m 175.85924,176.12749 c -0.0289,-0.17478 -0.0485,-0.50846 -0.0436,-0.74151 l 0.009,-0.42372 0.0741,0.46609 c 0.0408,0.25636 0.0943,0.5519 0.11882,0.65677 l 0.0447,0.19068 h 50.80249 50.8025 l 0.01,-1.16524 c 0.005,-0.64087 0.0378,-1.4131 0.0718,-1.71607 0.0486,-0.43268 0.0645,-0.25999 0.0741,0.80507 0.007,0.74575 -0.0119,1.55612 -0.0412,1.80082 l -0.0534,0.4449 H 226.8201 175.91177 Z" id="chest5" inkscape:connector-curvature="0" style="fill:#0039c6;fill-opacity:1;stroke:#000000;stroke-width:0;stroke-linejoin:round;stroke-miterlimit:4;stroke-dasharray:none;stroke-opacity:1" transform="translate(-117.262,-46.714)"/><path d="m 222.94377,300.19294 c 1.89933,-0.0127 5.00732,-0.0127 6.90665,0 1.89933,0.0127 0.34533,0.0231 -3.45332,0.0231 -3.79866,0 -5.35265,-0.0104 -3.45333,-0.0231 z" id="chest6" inkscape:connector-curvature="0" style="fill:#0039c6;fill-opacity:1;stroke:#000000;stroke-width:0;stroke-linejoin:round;stroke-miterlimit:4;stroke-dasharray:none;stroke-opacity:1" transform="translate(-117.262,-46.714)"/><path d="m 167.50341,227.84261 c -0.002,-0.60593 0.0205,-1.69669 0.0506,-2.42392 l 0.0548,-1.32224 1.10504,-0.0529 c 0.60778,-0.0291 1.11816,-0.0397 1.13418,-0.0237 0.0445,0.0445 -0.88506,2.05011 -1.65393,3.5685 l -0.68659,1.35591 z" id="arm8" inkscape:connector-curvature="0" style="fill:#ff0000;fill-opacity:1;stroke:#000000;stroke-width:0;stroke-linejoin:round;stroke-miterlimit:4;stroke-dasharray:none;stroke-opacity:1" transform="translate(-117.262,-46.714)"/></svg>